<?xml version="1.0" encoding="utf-8"?>
<!-- Generator: Adobe Illustrator 15.1.0, SVG Export Plug-In . SVG Version: 6.00 Build 0)  -->
<!DOCTYPE svg PUBLIC "-//W3C//DTD SVG 1.1//EN" "http://www.w3.org/Graphics/SVG/1.1/DTD/svg11.dtd">
<svg version="1.1" id="Layer_1" xmlns="http://www.w3.org/2000/svg" xmlns:xlink="http://www.w3.org/1999/xlink" x="0px" y="0px"
	 width="429px" height="73px" viewBox="-207 -2.5 429 73" enable-background="new -207 -2.5 429 73" xml:space="preserve">
<polygon fill="#6699CC" points="203.032,7.142 205.4,3.455 207.756,7.142 210.233,7.142 205.418,-0.44 200.589,7.142 "/>
<polygon fill="#6699CC" points="197.022,16.5 201.852,8.981 199.417,8.981 194.628,16.5 "/>
<polygon fill="#6699CC" points="216.177,16.5 211.401,8.981 208.932,8.981 213.735,16.5 "/>
<path fill="#6699CC" d="M157.168,16.343v-0.395c-0.125,0.138-0.338,0.258-0.637,0.361c-0.3,0.103-0.609,0.155-0.929,0.155
	c-0.906,0-1.619-0.288-2.139-0.862c-0.521-0.575-0.78-1.375-0.78-2.403c0-1.028,0.299-1.864,0.895-2.51
	c0.597-0.646,1.345-0.968,2.243-0.968c0.493,0,0.942,0.102,1.347,0.304V7.422l1.518-0.364v9.285H157.168L157.168,16.343z
	 M157.168,11.396c-0.323-0.259-0.661-0.389-1.013-0.389c-0.607,0-1.075,0.185-1.402,0.556s-0.492,0.902-0.492,1.593
	c0,1.352,0.652,2.027,1.955,2.027c0.146,0,0.324-0.043,0.537-0.13c0.212-0.087,0.351-0.175,0.416-0.264L157.168,11.396
	L157.168,11.396z"/>
<path fill="#6699CC" d="M166.005,13.558h-4.644c0.028,0.518,0.207,0.92,0.534,1.208c0.328,0.287,0.769,0.43,1.323,0.43
	c0.691,0,1.218-0.18,1.578-0.54l0.589,1.159c-0.534,0.433-1.331,0.649-2.392,0.649c-0.991,0-1.775-0.29-2.351-0.871
	c-0.577-0.581-0.865-1.391-0.865-2.431c0-1.023,0.316-1.852,0.949-2.488c0.634-0.635,1.394-0.953,2.279-0.953
	c0.942,0,1.699,0.281,2.271,0.844c0.569,0.563,0.855,1.278,0.855,2.148C166.132,12.9,166.09,13.181,166.005,13.558z M161.417,12.417
	h3.191c-0.105-0.951-0.631-1.426-1.577-1.426C162.165,10.99,161.627,11.465,161.417,12.417z"/>
<path fill="#6699CC" d="M170.963,15.693c-0.138,0.227-0.378,0.413-0.719,0.556c-0.343,0.144-0.699,0.215-1.071,0.215
	c-0.7,0-1.25-0.175-1.65-0.525c-0.401-0.35-0.602-0.847-0.602-1.49c0-0.752,0.282-1.341,0.847-1.767
	c0.564-0.424,1.366-0.637,2.406-0.637c0.178,0,0.389,0.03,0.631,0.091c0-0.765-0.483-1.147-1.45-1.147
	c-0.57,0-1.048,0.096-1.433,0.286l-0.327-1.178c0.521-0.25,1.144-0.376,1.863-0.376c0.991,0,1.718,0.225,2.179,0.677
	c0.461,0.451,0.691,1.306,0.691,2.564v1.39c0,0.866,0.174,1.41,0.522,1.633c-0.126,0.219-0.266,0.353-0.419,0.404
	c-0.154,0.051-0.33,0.076-0.528,0.076c-0.219,0-0.415-0.081-0.589-0.243C171.141,16.059,171.023,15.884,170.963,15.693z
	 M170.816,13.284c-0.258-0.053-0.452-0.079-0.582-0.079c-1.198,0-1.797,0.393-1.797,1.177c0,0.583,0.339,0.874,1.014,0.874
	c0.91,0,1.365-0.455,1.365-1.365V13.284L170.816,13.284z"/>
<path fill="#6699CC" d="M174.228,7.422l1.518-0.364v7.307c0,0.801,0.238,1.278,0.716,1.432c-0.234,0.445-0.635,0.667-1.201,0.667
	c-0.688,0-1.032-0.477-1.032-1.432V7.422z"/>
<path fill="#6699CC" d="M183.435,13.558h-4.644c0.029,0.518,0.207,0.92,0.534,1.208c0.328,0.287,0.77,0.43,1.324,0.43
	c0.691,0,1.218-0.18,1.577-0.54l0.589,1.159c-0.534,0.433-1.331,0.649-2.391,0.649c-0.992,0-1.775-0.29-2.353-0.871
	c-0.576-0.581-0.864-1.391-0.864-2.431c0-1.023,0.316-1.852,0.95-2.488c0.633-0.635,1.393-0.953,2.278-0.953
	c0.942,0,1.699,0.281,2.27,0.844s0.855,1.278,0.855,2.148C183.562,12.9,183.52,13.181,183.435,13.558z M178.847,12.417h3.191
	c-0.104-0.951-0.631-1.426-1.577-1.426C179.595,10.99,179.057,11.465,178.847,12.417z"/>
<path fill="#6699CC" d="M188.531,11.257c-0.271-0.178-0.567-0.267-0.892-0.267c-0.352,0-0.664,0.16-0.938,0.479
	c-0.273,0.32-0.409,0.71-0.409,1.172v3.701h-1.518v-6.5h1.518v0.595c0.424-0.478,0.989-0.717,1.693-0.717
	c0.518,0,0.914,0.079,1.189,0.237L188.531,11.257z"/>
<path fill="#6699CC" d="M189.686,15.924l0.54-1.208c0.453,0.36,0.965,0.54,1.535,0.54c0.591,0,0.886-0.21,0.886-0.631
	c0-0.246-0.089-0.449-0.267-0.607c-0.179-0.158-0.524-0.344-1.038-0.559c-1.12-0.465-1.681-1.116-1.681-1.954
	c0-0.563,0.214-1,0.643-1.314s0.978-0.47,1.645-0.47c0.676,0,1.312,0.151,1.906,0.455l-0.437,1.178
	c-0.332-0.284-0.794-0.425-1.384-0.425c-0.53,0-0.795,0.21-0.795,0.631c0,0.166,0.087,0.316,0.261,0.449
	c0.174,0.134,0.546,0.313,1.116,0.537c0.57,0.225,0.981,0.497,1.232,0.816s0.376,0.706,0.376,1.16c0,0.603-0.224,1.077-0.67,1.423
	c-0.447,0.346-1.056,0.519-1.824,0.519c-0.433,0-0.779-0.035-1.041-0.106C190.429,16.288,190.094,16.143,189.686,15.924z"/>
<path fill="#6699CC" d="M212.572,8.844V3.466h-0.852V2.193h2.422v6.651H212.572L212.572,8.844z M213.373-0.384
	c0.249,0,0.461,0.088,0.637,0.264c0.176,0.176,0.264,0.388,0.264,0.636s-0.088,0.46-0.264,0.637
	c-0.176,0.176-0.388,0.264-0.637,0.264c-0.248,0-0.46-0.088-0.637-0.264c-0.176-0.176-0.263-0.388-0.263-0.637
	s0.087-0.46,0.263-0.636C212.913-0.296,213.125-0.384,213.373-0.384z"/>
<path fill="#6699CC" d="M219.795,3.64c-0.277-0.182-0.582-0.273-0.913-0.273c-0.36,0-0.68,0.164-0.959,0.491s-0.42,0.727-0.42,1.199
	v3.788h-1.553V2.193h1.553v0.608c0.436-0.488,1.012-0.732,1.733-0.732c0.529,0,0.936,0.081,1.217,0.242L219.795,3.64z"/>
<path fill="#D4AF37" d="M-173.755,9.095c-4.43,0-8.147,1.068-11.153,3.204c-1.793,1.266-3.415,3.059-4.865,5.379
	c-1.477,2.399-2.347,4.681-2.61,6.842h26.974l-1.068,5.301h-26.539c-0.026,0.553-0.04,1.081-0.04,1.582
	c0,2.03,0.013,3.242,0.04,3.639h25.471l-1.107,5.299h-23.533c1.107,6.039,3.771,10.323,7.989,12.854
	c3.032,1.819,6.314,2.729,9.848,2.729c4.93,0,8.78-1.292,11.549-3.877v8.148c-3.296,1.528-6.935,2.293-10.916,2.293
	c-11.918,0-19.973-4.956-24.166-14.871c-0.844-2.003-1.569-4.43-2.175-7.277h-6.051l1.107-5.299h4.153
	c-0.079-1.107-0.119-2.308-0.119-3.6c0-0.527,0.013-1.068,0.04-1.621h-5.181L-205,24.52h4.588
	c1.635-8.595,5.893-14.765,12.775-18.509c4.245-2.32,8.925-3.48,14.041-3.48c4.904,0,9.031,1.068,12.379,3.204l-1.582,7.356
	C-166.017,10.427-169.668,9.095-173.755,9.095z"/>
<path fill="#D4AF37" d="M-104.729,61.5h-8.741l-6.763-17.561h-24.245l-6.368,17.561h-8.147l6.763-17.561h-6.645v-6.645h9.176
	l3.045-7.91h-12.221V22.74h14.752l7.396-19.222h8.266l7.871,19.222h15.741v6.645h-13.012l3.243,7.91h9.769v6.645h-7.08
	L-104.729,61.5z M-122.765,37.295l-2.966-7.91h-13.408l-2.966,7.91H-122.765z M-128.223,22.74l-0.435-1.107
	c-1.873-4.957-3.243-8.964-4.113-12.023c-0.765,3.876-1.806,7.568-3.125,11.074l-0.751,2.057H-128.223z"/>
<path fill="#D4AF37" d="M-90.136,35.752v5.695h23.216v5.459h-23.216V61.5h-7.673V46.906h-3.955v-5.459h3.955v-5.695h-3.955v-6.645
	h3.955V3.519h18.154c5.194,0,9.123,0.528,11.786,1.582c2.689,1.028,4.838,2.861,6.447,5.498c1.608,2.637,2.413,5.551,2.413,8.741
	c0,3.217-0.593,5.88-1.78,7.989s-2.762,3.791-4.726,5.043c-1.965,1.252-4.219,2.129-6.764,2.63s-5.175,0.751-7.89,0.751H-90.136z
	 M-80.169,29.107c1.766,0,3.454-0.138,5.063-0.415c1.608-0.276,3.019-0.784,4.232-1.522c1.212-0.738,2.175-1.733,2.887-2.986
	c0.712-1.252,1.068-2.867,1.068-4.845c0-1.714-0.323-3.164-0.969-4.351c-0.646-1.187-1.53-2.155-2.65-2.907
	c-1.121-0.751-2.432-1.298-3.935-1.641c-1.503-0.342-3.125-0.514-4.865-0.514h-10.797v19.182H-80.169z"/>
<path fill="#D4AF37" d="M-0.06,43.82h-4.746V61.5h-7.871l-11.826-17.68H-43.13V61.5h-7.356V43.82h-4.746v-6.645h4.746v-9.373h-4.746
	v-6.645h4.746V3.519h7.871l11.786,17.64h18.668V3.519h7.356v17.64h4.746v6.645h-4.746v9.373h4.746V43.82z M-39.65,21.158
	l-3.48-5.221v5.221H-39.65z M-28.932,37.176l-6.249-9.373h-7.95v9.373H-28.932z M-12.162,37.176v-9.373h-14.199l6.249,9.373H-12.162
	z M-12.162,49.041V43.82h-3.48L-12.162,49.041z"/>
<path fill="#D4AF37" d="M6.942,11.706V3.519h7.119v8.187H6.942z M6.942,61.5V19.497h7.119V61.5H6.942z"/>
<path fill="#D4AF37" d="M22.833,61.5V19.497h6.407v5.972c3.085-4.613,7.541-6.921,13.368-6.921c2.531,0,4.858,0.455,6.98,1.364
	c2.123,0.91,3.711,2.103,4.766,3.58c1.054,1.477,1.793,3.23,2.215,5.26c0.263,1.318,0.396,3.626,0.396,6.922V61.5h-7.119V35.95
	c0-2.9-0.277-5.068-0.831-6.506s-1.536-2.584-2.946-3.441c-1.411-0.856-3.065-1.285-4.964-1.285c-3.032,0-5.649,0.963-7.851,2.888
	c-2.202,1.925-3.303,5.576-3.303,10.955V61.5H22.833z"/>
<path fill="#D4AF37" d="M106.786,42.357H72.891c-0.237,0.896-0.356,1.938-0.356,3.125c0,3.006,0.91,5.55,2.729,7.633
	c2.109,2.399,5.102,3.6,8.978,3.6c3.718,0,6.658-1.147,8.82-3.441c1.793-1.846,2.913-4.258,3.362-7.238l7.159,1.346
	c-0.422,4.772-2.367,8.522-5.833,11.252c-3.468,2.729-7.944,4.094-13.428,4.094c-2.716,0-5.405-0.488-8.068-1.464
	c-2.664-0.976-4.772-2.28-6.328-3.915c-3.138-3.296-4.707-7.409-4.707-12.34c0-0.844,0.065-1.728,0.198-2.65h-2.492v-6.645h5.023
	c1.608-2.32,3.955-4.152,7.04-5.498c0.659-0.289,3.375-1.094,8.147-2.412h-20.21v-6.645h31.562c0.5-1.133,0.751-2.452,0.751-3.955
	c0-2.478-0.791-4.601-2.373-6.368c-1.873-2.109-4.707-3.164-8.503-3.164c-3.455,0-6.025,0.949-7.712,2.848
	c-1.345,1.503-2.229,3.652-2.65,6.447l-7.356-1.107c0.633-4.509,2.505-8.055,5.616-10.639c2.9-2.426,6.71-3.639,11.43-3.639
	c5.906,0,10.336,1.292,13.289,3.876c3.585,3.138,5.379,7.238,5.379,12.3c0,1.187-0.105,2.32-0.316,3.401h4.746v6.645h-7.95
	c-1.002,1.134-2.189,2.083-3.56,2.848c-2.031,1.134-6.421,2.598-13.17,4.391c-0.765,0.211-1.477,0.435-2.136,0.672h26.815V42.357z"
	/>
<path fill="#D4AF37" d="M127.972,69.846v-7.119c-3.56-0.449-6.453-1.246-8.682-2.394c-2.228-1.146-4.152-2.999-5.774-5.557
	c-1.621-2.558-2.564-5.682-2.828-9.374l7.159-1.344c0.554,3.823,1.529,6.631,2.927,8.424c2.004,2.531,4.403,3.942,7.198,4.232
	V34.052c-2.927-0.554-5.919-1.688-8.978-3.401c-2.269-1.266-4.015-3.019-5.241-5.26c-1.226-2.241-1.839-4.786-1.839-7.634
	c0-5.063,1.793-9.162,5.379-12.3c2.399-2.109,5.959-3.401,10.679-3.876v-3.401h4.192v3.401c4.14,0.396,7.422,1.608,9.849,3.639
	c3.11,2.584,4.982,6.13,5.615,10.639l-7.355,1.107c-0.423-2.794-1.3-4.937-2.631-6.427s-3.157-2.472-5.478-2.947v20.527
	c3.586,0.896,5.959,1.596,7.119,2.096c2.215,0.977,4.021,2.163,5.419,3.561c1.396,1.397,2.472,3.059,3.223,4.982
	c0.752,1.926,1.127,4.009,1.127,6.25c0,4.931-1.568,9.044-4.706,12.34s-7.198,5.063-12.182,5.299v7.199H127.972z M127.972,7.513
	c-2.769,0.422-4.95,1.529-6.546,3.322c-1.595,1.793-2.393,3.916-2.393,6.368c0,2.426,0.679,4.456,2.037,6.091
	c1.357,1.635,3.658,2.94,6.901,3.915V7.513z M132.164,56.715c2.769-0.343,5.056-1.543,6.862-3.6
	c1.806-2.057,2.709-4.601,2.709-7.633c0-2.584-0.64-4.661-1.918-6.229c-1.279-1.568-3.83-2.973-7.653-4.212V56.715z"/>
</svg>
